<svg height='100px' width='100px'  fill="green" xmlns="http://www.w3.org/2000/svg" viewBox="0 0 64 64" x="0px" y="0px"><g><path d="M32,3A21.134,21.134,0,0,0,11,24.267C11,42.633,32,61,32,61S53,42.633,53,24.267A21.134,21.134,0,0,0,32,3Zm0,39A18,18,0,1,1,50,24,18.021,18.021,0,0,1,32,42Z"></path><circle cx="26.5" cy="27.5" r="1.5"></circle><circle cx="37.5" cy="27.5" r="1.5"></circle><path d="M32,8A16,16,0,1,0,48,24,16.019,16.019,0,0,0,32,8ZM43,21H41v9a1,1,0,0,1-1,1H39v3H35V31H29v3H25V31H24a1,1,0,0,1-1-1V21H21V19h2V18a3,3,0,0,1,3-3h2V12h8v3h2a3,3,0,0,1,3,3v1h2Z"></path><path d="M38,17H26a1,1,0,0,0-1,1v6H39V18A1,1,0,0,0,38,17Z"></path></g></svg>