<svg xmlns="http://www.w3.org/2000/svg" xmlns:xlink="http://www.w3.org/1999/xlink" width="100" height="100" viewBox="0 0 100 100"><g transform="translate(50 50) scale(0.69 0.69) rotate(0) translate(-50 -50)" style="fill:#0000CC"><svg fill="#0000CC" xmlns="http://www.w3.org/2000/svg" xmlns:xlink="http://www.w3.org/1999/xlink" version="1.1" x="0px" y="0px" viewBox="0 0 100 100" enable-background="new 0 0 100 100" xml:space="preserve"><g><path d="M50.002,5C34.438,5,21.831,17.607,21.831,33.162c0,12.097,7.637,22.382,18.336,26.373L50.002,95l9.822-35.465   c10.703-3.991,18.344-14.277,18.344-26.373C78.169,17.607,65.555,5,50.002,5z M50.002,44.422c-6.219,0-11.261-5.046-11.261-11.261   c0-6.214,5.042-11.252,11.261-11.252c6.214,0,11.252,5.038,11.252,11.252C61.254,39.376,56.217,44.422,50.002,44.422z"></path></g></svg></g></svg>